<svg width="297" height="296" xmlns="http://www.w3.org/2000/svg" xmlns:xlink="http://www.w3.org/1999/xlink" xml:space="preserve" overflow="hidden"><defs><clipPath id="clip0"><rect x="522" y="414" width="297" height="296"/></clipPath></defs><g clip-path="url(#clip0)" transform="translate(-522 -414)"><path d="M659.418 650.993 659.418 668.523 680.931 668.523 680.931 650.993ZM692.853 534.331 673.469 544.981C672.643 545.435 671.765 545.7 670.883 545.791L669.589 545.675 668.294 545.791C667.412 545.7 666.534 545.435 665.709 544.981L647.172 534.797 628.634 544.981C627.809 545.435 626.931 545.7 626.049 545.791L624.754 545.675 623.46 545.791C622.578 545.7 621.7 545.435 620.874 544.981L601.97 534.595 583.065 544.981C582.239 545.435 581.361 545.7 580.479 545.791L579.185 545.675 577.89 545.791C577.009 545.7 576.13 545.435 575.305 544.981L575.261 544.957 575.261 631.876C575.261 634.808 577.701 637.184 580.711 637.184L618.186 637.184 618.186 637.385 722.814 637.385 722.814 637.184 760.289 637.184C763.299 637.184 765.739 634.808 765.739 631.876L765.739 544.958 765.696 544.981C764.871 545.435 763.993 545.7 763.111 545.791L761.817 545.675 760.522 545.791C759.64 545.7 758.762 545.435 757.937 544.981L738.967 534.559 719.997 544.981C719.172 545.435 718.294 545.7 717.412 545.791L716.117 545.675 714.823 545.791C713.941 545.7 713.063 545.435 712.237 544.981ZM742.894 500.77 740.36 501.281 599.135 501.281 597.77 501.006 565.127 523.846 579.185 531.569 597.472 521.522C598.297 521.069 599.175 520.804 600.057 520.713L601.718 520.862 601.914 520.795C602.558 520.674 603.221 520.644 603.882 520.712 604.764 520.804 605.642 521.069 606.467 521.522L624.754 531.569 643.041 521.522C643.867 521.069 644.745 520.804 645.627 520.713L646.706 520.809 646.748 520.795C647.392 520.674 648.055 520.644 648.716 520.712 649.598 520.804 650.477 521.069 651.302 521.522L669.589 531.569 687.876 521.522C688.701 521.069 689.579 520.804 690.461 520.712L692.881 520.93 693.276 520.795C693.921 520.674 694.584 520.644 695.245 520.712 696.127 520.804 697.005 521.069 697.83 521.522L716.117 531.569 734.404 521.522C735.229 521.069 736.108 520.804 736.99 520.712L738.753 520.871 738.976 520.795C739.62 520.674 740.283 520.644 740.944 520.713 741.826 520.804 742.704 521.069 743.53 521.522L761.817 531.569 775.874 523.846ZM670.5 450.117 617.168 487.433 723.832 487.433ZM701.336 414.105C703.085 414.411 704.717 415.383 705.818 416.949 708.018 420.079 707.259 424.397 704.121 426.593L682.587 441.66 816.044 535.04C819.182 537.235 819.942 541.553 817.742 544.684 815.541 547.815 811.213 548.573 808.075 546.377L788.006 532.335 786.687 533.449 778.793 537.786 778.793 634.76C778.793 643.725 771.33 650.993 762.123 650.993L751.987 650.993 751.987 705.06C751.987 707.788 749.77 710 747.035 710L745.204 710C742.47 710 740.253 707.788 740.253 705.06L740.253 650.993 692.665 650.993 692.665 705.06C692.665 707.788 690.448 710 687.713 710L685.882 710C683.148 710 680.931 707.788 680.931 705.06L680.931 681.708 659.418 681.708 659.418 705.06C659.418 707.788 657.201 710 654.467 710L652.636 710C649.901 710 647.684 707.788 647.684 705.06L647.684 650.993 600.911 650.993 600.911 705.06C600.911 707.788 598.694 710 595.959 710L594.129 710C591.394 710 589.177 707.788 589.177 705.06L589.177 650.993 578.877 650.993C569.671 650.993 562.208 643.725 562.208 634.76L562.208 537.785 554.315 533.449 552.995 532.334 532.926 546.377C529.788 548.573 525.46 547.815 523.259 544.684 521.058 541.553 521.818 537.235 524.956 535.04L658.414 441.66 636.88 426.593C633.742 424.397 632.982 420.08 635.183 416.949 637.383 413.818 641.711 413.06 644.849 415.256L662.807 427.821 662.807 424.435C662.807 420.611 665.915 417.512 669.747 417.512 673.58 417.512 676.688 420.611 676.688 424.435L676.688 428.874 696.151 415.256C697.72 414.158 699.586 413.798 701.336 414.105Z" fill="#6C2F12" fill-rule="evenodd"/></g></svg>