<svg width="992" height="992" xmlns="http://www.w3.org/2000/svg" xmlns:xlink="http://www.w3.org/1999/xlink" xml:space="preserve" overflow="hidden"><g transform="translate(-680 -552)"><path d="M683.5 1048C683.5 776 904 555.5 1176 555.5 1448 555.5 1668.5 776 1668.5 1048 1668.5 1320 1448 1540.5 1176 1540.5 904 1540.5 683.5 1320 683.5 1048Z" stroke="#000000" stroke-width="6.875" stroke-miterlimit="8" fill-rule="evenodd"/><path d="M994.68 674C1008.06 674 1020.81 676.42 1032.91 681.261 1045.01 686.102 1054.16 694.216 1060.37 705.604 1048.48 820.796 1042.53 946.024 1042.53 1081.29 1042.53 1117.21 1042.52 1138.55 1042.49 1145.33 1093.78 1097.46 1139.7 1050.92 1180.26 1005.68 1220.82 960.445 1247.27 923.671 1259.63 895.36 1278.73 892.2 1295.52 895.973 1310.01 906.678 1324.5 917.384 1331.75 929.96 1331.75 944.406 1331.75 971.858 1309.37 1005.92 1264.6 1046.59 1219.84 1087.26 1171.99 1122.32 1121.07 1151.76 1134.41 1176.78 1152.67 1203.59 1175.85 1232.18 1199.04 1260.77 1222.51 1283.6 1246.26 1300.67 1270.01 1317.75 1290.11 1326.29 1306.54 1326.29 1335.92 1326.29 1361.74 1301.38 1384.01 1251.56 1406.27 1201.75 1423.3 1146.18 1435.09 1084.85 1439.6 1072.82 1447.53 1066.8 1458.88 1066.8 1468.37 1066.8 1476.93 1071.43 1484.56 1080.68 1492.19 1089.93 1496 1101.04 1496 1113.99 1479.58 1196.13 1454.14 1264.82 1419.68 1320.05 1385.21 1375.28 1334.01 1402.9 1266.06 1402.9 1209.54 1402.9 1162.08 1385.35 1123.69 1350.25 1085.29 1315.15 1059.03 1273.58 1044.9 1225.54 1048.73 1289.81 1054.28 1342.98 1061.56 1385.06 1049.27 1405.69 1028.17 1416 998.263 1416 979.938 1416 963.084 1411.48 947.703 1402.43 932.322 1393.38 920.132 1378.83 911.133 1358.8 900.959 1337.2 893.06 1296.07 887.436 1235.41 881.812 1174.75 879 1105.52 879 1027.73 879 970.929 881.401 911.307 886.204 848.864 891.007 786.421 896.548 746.175 902.83 728.127 909.718 710.369 921.87 696.908 939.286 687.745 956.702 678.582 975.167 674 994.68 674Z" fill="#FFF10A" fill-rule="evenodd"/><path d="M1433.56 756C1461.24 756 1484.98 760.816 1504.81 770.45 1519.4 777.468 1530.76 787.789 1538.88 801.414 1545.49 812.561 1548.79 825.084 1548.79 838.984 1548.79 849.856 1546.83 860.831 1542.91 871.909 1538.98 882.988 1532.41 896.372 1523.19 912.06 1506.94 939.446 1488.01 968.002 1466.4 997.728L1441.82 1031.79 1449.47 1031.79C1486.91 1031.65 1513.76 1030.55 1530 1028.49 1535.37 1027.52 1539.5 1027.04 1542.39 1027.04 1546.8 1027.04 1549 1029.38 1549 1034.06 1549 1039.29 1546.59 1042.59 1541.77 1043.97 1539.57 1044.66 1535.44 1045 1529.38 1045L1295 1045C1319.51 1015.55 1340.09 989.815 1356.74 967.795 1373.4 945.777 1390.82 921.28 1408.99 894.307 1428.95 864.581 1442.93 842.425 1450.91 827.837 1458.9 813.249 1462.89 802.377 1462.89 795.221 1462.89 786.826 1459.72 780.564 1453.39 776.436 1447.06 772.308 1437.49 770.243 1424.68 770.243 1411.88 770.243 1398.77 772.376 1385.35 776.643 1371.92 780.908 1360.6 786.551 1351.38 793.57 1342.43 800.313 1335.3 808.467 1330 818.031 1324.7 827.596 1322.05 837.057 1322.05 846.416 1322.05 852.746 1322.91 858.147 1324.63 862.62 1326.35 867.093 1330.17 873.595 1336.09 882.128 1337.33 884.054 1337.95 885.981 1337.95 887.908 1337.95 889.972 1337.13 891.796 1335.48 893.378 1333.82 894.96 1332.03 895.752 1330.11 895.752 1324.6 895.752 1319.44 890.763 1314.62 880.786 1309.8 870.808 1307.39 860.246 1307.39 849.099 1307.39 833.686 1312.07 819.029 1321.43 805.13 1332.03 789.303 1347 777.159 1366.35 768.695 1385.69 760.231 1408.1 756 1433.56 756Z" fill="#FFF10A" fill-rule="evenodd"/></g></svg>