<svg width="730" height="398" xmlns="http://www.w3.org/2000/svg" xmlns:xlink="http://www.w3.org/1999/xlink" xml:space="preserve" overflow="hidden"><g transform="translate(-172 -127)"><path d="M0.0268057 200.026C0.629398 75.6746 82.6565 0.0256153 199.544 0.0256153L199.544 0.0256153C299.304 0.0256153 372.337 58.0739 392.027 155.275L392.027 155.275 252.385 155.275 251.129 155.275 251.129 101.578C251.129 92.5265 240.729 87.4267 233.549 92.9774L233.549 92.9774 105.962 191.425C103.151 193.628 101.745 196.827 101.745 200.026L101.745 200.026Z" fill="#0D0D0D" fill-rule="evenodd" transform="matrix(1 0 0 -1 509 525)"/><path d="M0.0268057 1.39447 0.0268057-0.0112565 101.745-0.0112565C101.745 3.20517 103.151 6.41838 105.962 8.62734L105.962 8.62734 233.549 107.517C240.729 113.092 251.129 107.966 251.129 98.8781L251.129 98.8781 251.129 47.0489 251.582 47.0489 392.027 47.0489C372.337 146.088 299.304 202.989 199.544 202.989L199.544 202.989C82.2002 202.989 0.0268057 126.452 0.0268057 1.39447" fill="#0D0D0D" fill-rule="evenodd" transform="matrix(1 0 0 -1 509 330)"/><path d="M0.0198527 196.025 0.0198527 161.618 109.011 0.0254654 277.02 0.0254654C277.02 0.0254654 265.61 14.1397 248.918 34.8345L248.918 34.8345C203.47 91.1452 118.813 196.025 118.813 196.025L118.813 196.025Z" fill="#0D0D0D" fill-rule="evenodd" transform="matrix(1 0 0 -1 306 521)"/><path d="M0.0145029 196.025 0.0145029 0.0254654 138.014 0.0254654 138.014 123.023 138.014 161.618 138.014 196.025Z" fill="#0D0D0D" fill-rule="evenodd" transform="matrix(1 0 0 -1 172 521)"/><path d="M108.938 197.989 0.0198395 43.5155 0.0198395-0.0107161 118.734-0.0107161 274.02 197.989Z" fill="#0D0D0D" fill-rule="evenodd" transform="matrix(1 0 0 -1 306 330)"/><path d="M0.0145029 197.989 0.0145029-0.0107161 138.014-0.0107161 138.014 43.5155 138.014 197.989Z" fill="#0D0D0D" fill-rule="evenodd" transform="matrix(1 0 0 -1 172 330)"/></g></svg>