<svg width="1201" height="1201" xmlns="http://www.w3.org/2000/svg" xmlns:xlink="http://www.w3.org/1999/xlink" xml:space="preserve" overflow="hidden"><defs><clipPath id="clip0"><rect x="1306" y="573" width="1201" height="1201"/></clipPath><clipPath id="clip1"><rect x="1395" y="638" width="1022" height="1018"/></clipPath><clipPath id="clip2"><rect x="1395" y="638" width="1022" height="1018"/></clipPath><clipPath id="clip3"><rect x="1395" y="638" width="1022" height="1018"/></clipPath><clipPath id="clip4"><rect x="1395" y="638" width="1022" height="1018"/></clipPath></defs><g clip-path="url(#clip0)" transform="translate(-1306 -573)"><g clip-path="url(#clip1)"><g clip-path="url(#clip2)"><g clip-path="url(#clip3)"><g clip-path="url(#clip4)"><path d="M2266.89 2237.93 2266.89 2298.19 2340.84 2298.19 2340.84 2237.93ZM2381.83 1836.88 2315.19 1873.49C2312.35 1875.05 2309.33 1875.96 2306.3 1876.27L2301.85 1875.87 2297.4 1876.27C2294.37 1875.96 2291.35 1875.05 2288.51 1873.49L2224.79 1838.48 2161.06 1873.49C2158.23 1875.05 2155.21 1875.96 2152.18 1876.27L2147.72 1875.87 2143.27 1876.27C2140.24 1875.96 2137.22 1875.05 2134.39 1873.49L2069.4 1837.78 2004.41 1873.49C2001.57 1875.05 1998.55 1875.96 1995.52 1876.27L1991.07 1875.87 1986.62 1876.27C1983.59 1875.96 1980.57 1875.05 1977.73 1873.49L1977.58 1873.4 1977.58 2172.21C1977.58 2182.29 1985.97 2190.45 1996.32 2190.45L2125.14 2190.45 2125.14 2191.15 2484.83 2191.15 2484.83 2190.45 2613.65 2190.45C2624 2190.45 2632.39 2182.29 2632.39 2172.21L2632.39 1873.41 2632.24 1873.49C2629.4 1875.05 2626.39 1875.96 2623.35 1876.27L2618.91 1875.87 2614.45 1876.27C2611.42 1875.96 2608.4 1875.05 2605.57 1873.49L2540.35 1837.66 2475.14 1873.49C2472.3 1875.05 2469.29 1875.96 2466.25 1876.27L2461.8 1875.87 2457.35 1876.27C2454.32 1875.96 2451.3 1875.05 2448.46 1873.49ZM2553.85 1721.5 2545.14 1723.26 2059.65 1723.26 2054.96 1722.31 1942.74 1800.83 1991.07 1827.38 2053.94 1792.84C2056.77 1791.28 2059.79 1790.37 2062.82 1790.06L2068.53 1790.57 2069.21 1790.34C2071.42 1789.93 2073.7 1789.82 2075.97 1790.06 2079 1790.37 2082.02 1791.28 2084.86 1792.84L2147.72 1827.38 2210.59 1792.84C2213.43 1791.28 2216.45 1790.37 2219.48 1790.06L2223.19 1790.39 2223.33 1790.34C2225.55 1789.93 2227.83 1789.82 2230.1 1790.06 2233.13 1790.37 2236.15 1791.28 2238.99 1792.84L2301.85 1827.38 2364.72 1792.84C2367.55 1791.28 2370.57 1790.37 2373.6 1790.06L2381.92 1790.81 2383.28 1790.34C2385.5 1789.93 2387.78 1789.82 2390.05 1790.06 2393.08 1790.37 2396.1 1791.28 2398.94 1792.84L2461.8 1827.38 2524.67 1792.84C2527.5 1791.28 2530.53 1790.37 2533.56 1790.06L2539.62 1790.6 2540.39 1790.34C2542.6 1789.93 2544.88 1789.82 2547.15 1790.06 2550.18 1790.37 2553.2 1791.28 2556.04 1792.84L2618.91 1827.38 2667.23 1800.83ZM2304.98 1547.37 2121.64 1675.65 2488.32 1675.65ZM2410.99 1423.57C2417 1424.62 2422.61 1427.97 2426.4 1433.35 2433.96 1444.11 2431.35 1458.95 2420.56 1466.5L2346.54 1518.3 2805.32 1839.31C2816.11 1846.86 2818.72 1861.7 2811.16 1872.47 2803.59 1883.23 2788.72 1885.84 2777.93 1878.29L2708.94 1830.01 2704.4 1833.84 2677.26 1848.75 2677.26 2182.12C2677.26 2212.94 2651.61 2237.93 2619.96 2237.93L2585.11 2237.93 2585.11 2423.79C2585.11 2433.17 2577.49 2440.77 2568.09 2440.77L2561.8 2440.77C2552.4 2440.77 2544.78 2433.17 2544.78 2423.79L2544.78 2237.93 2381.18 2237.93 2381.18 2423.79C2381.18 2433.17 2373.56 2440.77 2364.16 2440.77L2357.86 2440.77C2348.46 2440.77 2340.84 2433.17 2340.84 2423.79L2340.84 2343.51 2266.89 2343.51 2266.89 2423.79C2266.89 2433.17 2259.27 2440.77 2249.87 2440.77L2243.57 2440.77C2234.17 2440.77 2226.55 2433.17 2226.55 2423.79L2226.55 2237.93 2065.76 2237.93 2065.76 2423.79C2065.76 2433.17 2058.14 2440.77 2048.73 2440.77L2042.44 2440.77C2033.04 2440.77 2025.42 2433.17 2025.42 2423.79L2025.42 2237.93 1990.01 2237.93C1958.36 2237.93 1932.71 2212.94 1932.71 2182.12L1932.71 1848.75 1905.57 1833.84 1901.04 1830.01 1832.05 1878.29C1821.26 1885.84 1806.38 1883.23 1798.81 1872.47 1791.25 1861.7 1793.86 1846.86 1804.65 1839.31L2263.44 1518.3 2189.41 1466.5C2178.62 1458.95 2176.01 1444.11 2183.58 1433.35 2191.14 1422.59 2206.02 1419.98 2216.8 1427.53L2278.54 1470.72 2278.54 1459.08C2278.54 1445.94 2289.22 1435.29 2302.4 1435.29 2315.57 1435.29 2326.26 1445.94 2326.26 1459.08L2326.26 1474.34 2393.17 1427.53C2398.56 1423.76 2404.97 1422.52 2410.99 1423.57Z" fill="#13501B" fill-rule="evenodd" transform="matrix(1 0 0 1.00043 -398.485 -785.824)"/></g></g></g></g><path d="M1906.5 573C2238.15 573 2507 841.853 2507 1173.5 2507 1505.15 2238.15 1774 1906.5 1774 1574.85 1774 1306 1505.15 1306 1173.5 1306 841.853 1574.85 573 1906.5 573ZM1906.5 617.121C1599.22 617.121 1350.12 866.221 1350.12 1173.5 1350.12 1480.78 1599.22 1729.88 1906.5 1729.88 2213.78 1729.88 2462.88 1480.78 2462.88 1173.5 2462.88 866.221 2213.78 617.121 1906.5 617.121Z" fill="#0D3512" fill-rule="evenodd"/><text fill="#0D3512" font-family="Aptos Black,Aptos Black_MSFontService,sans-serif" font-weight="900" font-size="147" transform="matrix(1 0 0 1 1611.62 1292)">K</text><text fill="#0D3512" font-family="Aptos Black,Aptos Black_MSFontService,sans-serif" font-weight="900" font-size="83" transform="matrix(1 0 0 1 1710.16 1292)">anto</text><text fill="#0D3512" font-family="Aptos Black,Aptos Black_MSFontService,sans-serif" font-weight="900" font-size="147" transform="matrix(1 0 0 1 1886.21 1292)">K</text><text fill="#0D3512" font-family="Aptos Black,Aptos Black_MSFontService,sans-serif" font-weight="900" font-size="83" transform="matrix(1 0 0 1 1984.75 1292)">usina</text></g></svg>