<svg width="1089" height="1090" xmlns="http://www.w3.org/2000/svg" xmlns:xlink="http://www.w3.org/1999/xlink" xml:space="preserve" overflow="hidden"><g transform="translate(-1085 -640)"><path d="M814.816 127.439 814.816 275.798C814.816 386.604 724.752 476.758 614.039 476.758 552.321 476.758 497.016 448.733 460.156 404.74L460.156 854.697C460.156 867.659 449.657 878.168 436.707 878.168 423.762 878.168 413.262 867.659 413.262 854.697L413.262 275.79C413.262 262.837 423.762 252.32 436.707 252.32 449.657 252.32 460.156 262.837 460.156 275.79 460.156 360.726 529.189 429.818 614.039 429.818 698.898 429.818 767.927 360.726 767.927 275.79L767.927 100.371C700.625 66.2667 624.595 47.014 544.139 47.014 490.453 47.014 438.736 55.6133 390.259 71.4449L390.259 813.357C390.259 898.289 459.293 967.381 544.139 967.381 628.993 967.381 698.034 898.289 698.034 813.353 698.034 728.425 628.993 659.333 544.139 659.333 531.193 659.333 520.694 648.82 520.694 635.863 520.694 622.902 531.193 612.397 544.139 612.397 654.852 612.397 744.92 702.547 744.92 813.357 744.92 924.167 654.852 1014.32 544.139 1014.32 433.434 1014.32 343.366 924.167 343.366 813.357L343.366 89.4515C168.99 166.817 47.0343 341.694 47.0343 544.576 47.0343 818.937 270.039 1042.14 544.139 1042.14 818.25 1042.14 1041.25 818.937 1041.25 544.576 1041.25 370.069 951.018 216.282 814.816 127.439M544.139 1089.07C244.18 1089.07 0.144628 844.811 0.144628 544.576 0.144628 244.335 244.18 0.0736437 544.139 0.0736437 844.109 0.0736437 1088.14 244.335 1088.14 544.576 1088.14 844.811 844.109 1089.07 544.139 1089.07" fill-rule="evenodd" transform="matrix(1 0 0 -1 1085 1730)"/></g></svg>